<svg width="48" height="48" viewBox="0 0 48 48" fill="none" xmlns="http://www.w3.org/2000/svg">
<path d="M38 21.9996H14.28L21.54 13.2796C21.8795 12.8711 22.0428 12.3446 21.994 11.8157C21.9453 11.2869 21.6884 10.7991 21.28 10.4596C20.8716 10.1201 20.345 9.95677 19.8162 10.0055C19.2873 10.0543 18.7995 10.3111 18.46 10.7196L8.46 22.7196C8.39272 22.815 8.33256 22.9153 8.28 23.0196C8.28 23.1196 8.28 23.1796 8.14 23.2796C8.04935 23.5089 8.00188 23.753 8 23.9996C8.00188 24.2462 8.04935 24.4903 8.14 24.7196C8.14 24.8196 8.14 24.8796 8.28 24.9796C8.33256 25.0839 8.39272 25.1841 8.46 25.2796L18.46 37.2796C18.648 37.5053 18.8835 37.6869 19.1497 37.8113C19.4159 37.9358 19.7062 38.0001 20 37.9996C20.4673 38.0005 20.9202 37.8377 21.28 37.5396C21.4825 37.3717 21.6499 37.1655 21.7726 36.9328C21.8953 36.7001 21.9709 36.4455 21.9951 36.1835C22.0192 35.9216 21.9915 35.6574 21.9134 35.4062C21.8353 35.155 21.7084 34.9217 21.54 34.7196L14.28 25.9996H38C38.5304 25.9996 39.0391 25.7889 39.4142 25.4138C39.7893 25.0387 40 24.53 40 23.9996C40 23.4691 39.7893 22.9604 39.4142 22.5854C39.0391 22.2103 38.5304 21.9996 38 21.9996Z" fill="black"/>
</svg>
