<svg width="22" height="22" viewBox="0 0 22 22" fill="none" xmlns="http://www.w3.org/2000/svg">
<path d="M3.66675 19.2496C3.73982 19.2584 3.81368 19.2584 3.88675 19.2496L7.55342 18.3329C7.71608 18.2943 7.86506 18.2119 7.98425 18.0946L19.2501 6.79211C19.5915 6.44861 19.7832 5.98395 19.7832 5.49961C19.7832 5.01527 19.5915 4.5506 19.2501 4.20711L17.8018 2.74961C17.6315 2.57915 17.4293 2.44392 17.2067 2.35166C16.9842 2.2594 16.7456 2.21191 16.5047 2.21191C16.2637 2.21191 16.0252 2.2594 15.8026 2.35166C15.58 2.44392 15.3779 2.57915 15.2076 2.74961L3.94175 14.0154C3.82331 14.1352 3.73802 14.2836 3.69425 14.4463L2.77758 18.1129C2.74464 18.2315 2.73592 18.3556 2.75194 18.4776C2.76797 18.5997 2.80841 18.7173 2.87086 18.8233C2.93332 18.9294 3.01649 19.0218 3.11543 19.0951C3.21438 19.1683 3.32706 19.2209 3.44675 19.2496C3.51982 19.2584 3.59368 19.2584 3.66675 19.2496ZM16.5001 4.04211L17.9576 5.49961L16.5001 6.95711L15.0518 5.49961L16.5001 4.04211ZM5.41758 15.1338L13.7501 6.79211L15.2076 8.24961L6.86592 16.5913L4.93175 17.0679L5.41758 15.1338Z" fill="#F37121"/>
</svg>
