<svg width="26" height="26" viewBox="0 0 26 26" fill="none" xmlns="http://www.w3.org/2000/svg">
<path d="M3.40234 5.7998H22.6024L20.7064 22.8639C20.6414 23.4511 20.3621 23.9938 19.9219 24.3879C19.4817 24.782 18.9116 24.9999 18.3208 24.9999H7.68396C7.09312 24.9999 6.52303 24.782 6.08285 24.3879C5.64267 23.9938 5.36334 23.4511 5.29835 22.8639L3.40234 5.7998Z" stroke="#1B1C1D" stroke-width="2" stroke-linecap="round" stroke-linejoin="round"/>
<path d="M7.41283 2.3764C7.60694 1.96476 7.91408 1.6168 8.29844 1.37309C8.6828 1.12939 9.12853 0.999995 9.58364 1H16.4141C16.8694 0.999767 17.3154 1.12906 17.7 1.37277C18.0845 1.61649 18.3919 1.96458 18.5861 2.3764L20.1989 5.80001H5.79883L7.41283 2.3764Z" stroke="#1B1C1D" stroke-width="2" stroke-linecap="round" stroke-linejoin="round"/>
<path d="M1 5.7998H25.0001" stroke="#1B1C1D" stroke-width="2" stroke-linecap="round" stroke-linejoin="round"/>
<path d="M10.5977 11.7998V17.7998" stroke="#1B1C1D" stroke-width="2" stroke-linecap="round" stroke-linejoin="round"/>
<path d="M15.4023 11.7998V17.7998" stroke="#1B1C1D" stroke-width="2" stroke-linecap="round" stroke-linejoin="round"/>
</svg>
