<svg width="16" height="16" viewBox="0 0 16 16" fill="none" xmlns="http://www.w3.org/2000/svg">
<path d="M8 4.5C9.10457 4.5 10 3.60457 10 2.5C10 1.39543 9.10457 0.5 8 0.5C6.89543 0.5 6 1.39543 6 2.5C6 3.60457 6.89543 4.5 8 4.5Z" fill="black"/>
<path d="M8 10C9.10457 10 10 9.10457 10 8C10 6.89543 9.10457 6 8 6C6.89543 6 6 6.89543 6 8C6 9.10457 6.89543 10 8 10Z" fill="black"/>
<path d="M8 15.5C9.10457 15.5 10 14.6046 10 13.5C10 12.3954 9.10457 11.5 8 11.5C6.89543 11.5 6 12.3954 6 13.5C6 14.6046 6.89543 15.5 8 15.5Z" fill="black"/>
</svg>
